<svg xmlns="http://www.w3.org/2000/svg" viewBox="0 0 1600 900" role="img" aria-label="Sunny retirement planning terrace overlooking water and a skyline">
  <defs>
    <linearGradient id="sky" x1="0" x2="1" y1="0" y2="1">
      <stop offset="0" stop-color="#8fc4c8"/>
      <stop offset="0.42" stop-color="#f0c789"/>
      <stop offset="1" stop-color="#245f4b"/>
    </linearGradient>
    <linearGradient id="water" x1="0" x2="1">
      <stop offset="0" stop-color="#0c7c80"/>
      <stop offset="1" stop-color="#86c7b7"/>
    </linearGradient>
    <linearGradient id="table" x1="0" x2="1">
      <stop offset="0" stop-color="#d9bd88"/>
      <stop offset="1" stop-color="#a87444"/>
    </linearGradient>
    <filter id="soft" x="-20%" y="-20%" width="140%" height="140%">
      <feGaussianBlur stdDeviation="10"/>
    </filter>
  </defs>
  <rect width="1600" height="900" fill="url(#sky)"/>
  <circle cx="1260" cy="145" r="92" fill="#ffe0a7" opacity="0.9"/>
  <path d="M0 430 C260 360 440 410 650 365 C880 315 1060 305 1600 350 L1600 900 L0 900 Z" fill="url(#water)" opacity="0.9"/>
  <path d="M0 470 C280 430 520 475 760 430 C1000 386 1200 410 1600 385 L1600 900 L0 900 Z" fill="#d9f0de" opacity="0.28"/>
  <g opacity="0.72" filter="url(#soft)">
    <rect x="730" y="250" width="52" height="180" rx="6" fill="#294f53"/>
    <rect x="800" y="220" width="70" height="210" rx="8" fill="#315f61"/>
    <rect x="894" y="275" width="60" height="155" rx="6" fill="#294f53"/>
    <rect x="982" y="238" width="74" height="192" rx="8" fill="#315f61"/>
    <rect x="1080" y="292" width="60" height="138" rx="6" fill="#294f53"/>
    <rect x="1160" y="255" width="88" height="175" rx="9" fill="#315f61"/>
  </g>
  <path d="M0 715 C210 652 360 682 580 635 C820 583 1060 604 1600 548 L1600 900 L0 900 Z" fill="#33483f" opacity="0.76"/>
  <path d="M0 745 C300 686 550 708 800 657 C1040 607 1240 620 1600 590 L1600 900 L0 900 Z" fill="#1f342e" opacity="0.8"/>
  <rect x="785" y="610" width="735" height="220" rx="16" fill="url(#table)" opacity="0.92" transform="rotate(-4 1150 720)"/>
  <rect x="930" y="642" width="350" height="150" rx="10" fill="#fffdf8" opacity="0.92" transform="rotate(-5 1105 717)"/>
  <path d="M970 742 L1012 704 L1056 724 L1114 675 L1182 710 L1230 662" fill="none" stroke="#0c7c80" stroke-width="12" stroke-linecap="round" stroke-linejoin="round"/>
  <rect x="1280" y="610" width="110" height="72" rx="16" fill="#245f4b" transform="rotate(8 1335 646)"/>
  <circle cx="1362" cy="665" r="18" fill="#d85f48"/>
  <rect x="1170" y="786" width="170" height="22" rx="11" fill="#13201c" opacity="0.28"/>
  <g transform="translate(1390 245)">
    <rect x="0" y="0" width="112" height="220" rx="18" fill="#efe7d4"/>
    <path d="M56 20 C96 76 82 140 48 201" fill="none" stroke="#245f4b" stroke-width="13" stroke-linecap="round"/>
    <circle cx="22" cy="72" r="18" fill="#6dbd87"/>
    <circle cx="82" cy="95" r="22" fill="#46c0a6"/>
    <circle cx="46" cy="136" r="20" fill="#6dbd87"/>
  </g>
  <g opacity="0.7">
    <circle cx="92" cy="74" r="54" fill="#d85f48"/>
    <circle cx="42" cy="38" r="38" fill="#245f4b"/>
    <circle cx="140" cy="35" r="34" fill="#ffe0a7"/>
  </g>
</svg>
